<?xml version="1.0" encoding="UTF-8"?>
<svg id="Layer_1" data-name="Layer 1" xmlns="http://www.w3.org/2000/svg" viewBox="0 0 171.87 78.91">
  <defs>
    <style>
      .cls-1 {
        fill: #253740;
      }

      .cls-2 {
        fill: #4c6759;
      }
    </style>
  </defs>
  <path class="cls-1" d="M0,78.91V0h20.95v78.91H0ZM19.25,56v-21.88h2.08L60.7,0h25.81l-41.56,35.77-3.01-.05-22.7,20.29ZM61.96,78.91L26.96,40.47l16.08-11.54,45.34,49.98h-26.41Z"/>
  <path class="cls-2" d="M93.29,78.91V0h48.78c5.58,0,10.42.98,14.52,2.93,4.1,1.95,7.25,4.7,9.46,8.26,2.21,3.55,3.31,7.76,3.31,12.61v.11c0,5.69-1.52,10.51-4.57,14.46-3.04,3.96-7.36,6.75-12.93,8.39l20.02,32.16h-13.62l-18.54-30.57h-34.84v30.57h-11.59ZM104.88,38.77h36.42c5.18,0,9.17-1.27,11.98-3.8,2.81-2.53,4.21-6.12,4.21-10.75v-.11c0-4.52-1.47-8.05-4.4-10.58-2.94-2.53-6.99-3.8-12.17-3.8h-36.04v29.04Z"/>
</svg>