<?xml version="1.0" encoding="UTF-8"?>
<svg id="Layer_1" data-name="Layer 1" xmlns="http://www.w3.org/2000/svg" viewBox="0 0 432 432">
  <defs>
    <style>
      .cls-1 {
        fill: #96b2bf;
      }

      .cls-2 {
        fill: #dce4eb;
      }
    </style>
  </defs>
  <rect width="432" height="432"/>
  <g>
    <path class="cls-1" d="M124.83,211.86v-31h8.23v31h-8.23ZM132.39,202.86v-8.59h.82l15.47-13.41h10.14l-16.33,14.05-1.18-.02-8.92,7.97ZM149.17,211.86l-13.75-15.1,6.32-4.53,17.81,19.64h-10.38Z"/>
    <path class="cls-1" d="M159.15,211.86l14.27-31h7.8v6.49h-2.69l-10.7,24.51h-8.68ZM166.59,204.82l2.36-5.54h19.1l2.34,5.54h-23.8ZM189.36,211.86l-10.68-24.51v-6.49h5.09l14.29,31h-8.7Z"/>
    <path class="cls-1" d="M200.1,211.86v-31h17.21c3.84,0,7.09.59,9.74,1.78,2.66,1.19,4.68,2.93,6.07,5.21,1.39,2.28,2.08,5.06,2.08,8.33v.04c0,3.34-.69,6.17-2.08,8.51-1.39,2.34-3.41,4.11-6.07,5.32-2.66,1.21-5.9,1.82-9.74,1.82h-17.21ZM208.33,205.59h8.42c2.18,0,4.01-.34,5.5-1.03,1.49-.69,2.62-1.71,3.39-3.07.77-1.36,1.16-3.07,1.16-5.13v-.04c0-1.99-.38-3.67-1.13-5.03-.75-1.36-1.87-2.39-3.36-3.09-1.49-.7-3.34-1.05-5.56-1.05h-8.42v18.46Z"/>
    <path class="cls-1" d="M238.23,211.86v-31h28.51v6.04h-20.28v6.51h18.91v5.52h-18.91v6.9h20.28v6.04h-28.51Z"/>
    <path class="cls-1" d="M270.3,211.86v-31h7.18l23.14,24.13-7.5-4.21h3.44v-19.92h7.99v31h-7.13l-23.12-24.32,7.48,4.25h-3.44v20.07h-8.04Z"/>
  </g>
  <g>
    <path class="cls-2" d="M139.12,247v-31h19.16c2.19,0,4.09.38,5.7,1.15,1.61.77,2.85,1.85,3.72,3.24.87,1.4,1.3,3.05,1.3,4.95v.04c0,2.23-.6,4.13-1.79,5.68-1.2,1.55-2.89,2.65-5.08,3.3l7.86,12.63h-5.35l-7.28-12.01h-13.69v12.01h-4.55ZM143.68,231.23h14.31c2.03,0,3.6-.5,4.71-1.49,1.1-1,1.65-2.4,1.65-4.22v-.04c0-1.78-.58-3.16-1.73-4.16-1.15-1-2.75-1.49-4.78-1.49h-14.16v11.41Z"/>
    <path class="cls-2" d="M191.93,247.58c-3.75,0-7.02-.66-9.8-1.98-2.78-1.32-4.93-3.18-6.47-5.59-1.53-2.41-2.3-5.24-2.3-8.51v-.04c0-3.27.77-6.1,2.3-8.5,1.53-2.4,3.69-4.26,6.47-5.58,2.78-1.32,6.04-1.98,9.8-1.98s7,.66,9.79,1.98c2.79,1.32,4.95,3.18,6.49,5.58,1.54,2.4,2.31,5.23,2.31,8.5v.04c0,3.27-.77,6.1-2.31,8.51-1.54,2.41-3.7,4.27-6.48,5.59-2.78,1.32-6.04,1.98-9.8,1.98ZM191.93,243.59c2.82,0,5.27-.49,7.36-1.48s3.7-2.39,4.84-4.2c1.15-1.81,1.72-3.94,1.72-6.39v-.04c0-2.45-.58-4.58-1.73-6.38-1.15-1.8-2.77-3.2-4.86-4.19s-4.53-1.48-7.34-1.48-5.25.49-7.34,1.48-3.7,2.38-4.86,4.19c-1.15,1.8-1.73,3.93-1.73,6.38v.04c0,2.45.58,4.58,1.73,6.39,1.15,1.81,2.77,3.21,4.86,4.2s4.53,1.48,7.34,1.48Z"/>
    <path class="cls-2" d="M230.7,247.58c-3.22,0-6-.35-8.34-1.04-2.33-.69-4.17-1.71-5.5-3.04s-2.12-2.95-2.36-4.86l-.04-.28h4.55l.06.26c.3,1.1.94,2.03,1.91,2.78.97.75,2.29,1.32,3.96,1.7,1.67.38,3.68.57,6.05.57,2.08,0,3.85-.21,5.32-.62,1.47-.42,2.59-1.02,3.36-1.83.77-.8,1.16-1.76,1.16-2.88v-.02c0-1.43-.56-2.51-1.69-3.22-1.12-.72-3.05-1.22-5.79-1.5l-7.33-.69c-3.67-.39-6.38-1.27-8.14-2.64s-2.64-3.28-2.64-5.71v-.04c0-1.85.58-3.45,1.74-4.8s2.8-2.41,4.92-3.16c2.12-.75,4.63-1.13,7.52-1.13s5.64.36,7.84,1.07c2.21.72,3.95,1.75,5.23,3.1,1.28,1.35,2.06,2.99,2.33,4.91l.02.21h-4.55l-.06-.21c-.36-1.17-.97-2.14-1.85-2.9-.87-.76-2.06-1.33-3.54-1.71-1.49-.38-3.32-.57-5.48-.57-2.02,0-3.74.2-5.16.6-1.42.4-2.5.98-3.23,1.73-.74.75-1.11,1.66-1.11,2.72v.02c0,1.32.56,2.33,1.69,3.05,1.12.72,2.94,1.21,5.45,1.48l7.37.64c2.58.29,4.68.78,6.32,1.47,1.63.69,2.84,1.62,3.61,2.78s1.16,2.59,1.16,4.28v.02c0,1.99-.58,3.69-1.74,5.1s-2.83,2.49-5.02,3.23c-2.18.74-4.85,1.12-8,1.12Z"/>
    <path class="cls-2" d="M250.57,247v-31h26.96v3.87h-22.41v9.43h20.93v3.74h-20.93v10.1h22.41v3.87h-26.96Z"/>
  </g>
</svg>